<?xml version="1.0" standalone="no"?>
<!DOCTYPE svg PUBLIC "-//W3C//DTD SVG 20010904//EN"
 "http://www.w3.org/TR/2001/REC-SVG-20010904/DTD/svg10.dtd">
<svg version="1.0" xmlns="http://www.w3.org/2000/svg"
 width="1024.000000pt" height="1024.000000pt" viewBox="0 0 1024.000000 1024.000000"
 preserveAspectRatio="xMidYMid meet">

<g transform="translate(0.000000,1024.000000) scale(0.100000,-0.100000)"
fill="#000000" stroke="none">
<path d="M3293 8600 c-472 -46 -925 -227 -1273 -507 -90 -72 -268 -252 -341
-343 -214 -267 -379 -614 -453 -951 -83 -376 -73 -782 29 -1153 96 -352 286
-692 544 -977 39 -42 71 -83 71 -90 0 -7 -45 -208 -101 -448 -107 -465 -113
-510 -73 -564 29 -39 85 -67 137 -67 36 0 68 12 149 54 57 29 280 144 497 256
l394 202 91 -26 c209 -59 309 -71 591 -70 277 0 353 8 555 59 297 75 591 218
855 415 l105 79 38 -35 c51 -49 243 -192 323 -241 249 -155 559 -268 874 -320
170 -27 508 -25 678 6 71 12 148 28 171 35 l43 13 189 -99 c711 -373 807 -421
859 -422 60 0 110 25 142 73 48 71 51 53 -153 885 l-34 138 85 90 c343 361
560 830 614 1330 14 123 14 415 1 533 -76 686 -445 1291 -1015 1665 -606 397
-1399 486 -2082 235 -207 -76 -445 -211 -595 -337 l-48 -40 -29 24 c-15 13
-63 51 -104 86 -308 254 -733 434 -1179 497 -130 18 -434 27 -555 15z m423
-331 c406 -39 793 -192 1113 -439 50 -39 91 -75 91 -81 0 -6 -24 -37 -53 -70
-278 -307 -469 -750 -523 -1215 -28 -239 -5 -630 51 -846 19 -75 19 -78 -2
-48 -73 111 -229 206 -411 253 -84 21 -104 22 -567 22 l-480 0 -90 -28 c-143
-45 -218 -90 -321 -192 -75 -74 -99 -105 -133 -175 -60 -124 -72 -181 -78
-371 -6 -186 1 -223 48 -263 65 -55 148 -52 208 8 l36 36 6 158 c4 86 12 177
19 202 31 114 103 207 198 258 111 60 135 62 588 62 238 0 434 -4 465 -10 65
-13 167 -59 219 -100 47 -37 102 -119 125 -185 11 -32 20 -108 27 -210 8 -139
12 -164 31 -192 28 -41 72 -63 129 -63 60 0 105 30 130 87 19 42 20 59 15 163
-4 63 -9 126 -13 140 -3 14 19 -20 48 -75 64 -118 104 -182 192 -304 l66 -91
-80 -60 c-292 -216 -604 -348 -933 -395 -134 -19 -406 -19 -554 0 -125 17
-190 31 -318 71 -57 18 -92 24 -120 19 -24 -3 -195 -85 -419 -200 -209 -108
-380 -194 -382 -192 -2 2 28 140 67 307 80 343 87 417 52 485 -12 22 -65 87
-118 145 -115 124 -163 185 -238 301 -221 343 -328 735 -314 1154 14 431 143
808 391 1142 405 548 1128 861 1832 792z m3159 -120 c129 -16 334 -70 471
-124 475 -189 842 -532 1060 -990 131 -276 205 -632 190 -910 -23 -402 -125
-733 -316 -1025 -73 -110 -117 -164 -259 -315 -57 -60 -110 -124 -117 -142 -8
-18 -14 -57 -14 -86 0 -45 90 -464 144 -675 l14 -52 -91 49 c-523 280 -674
355 -722 359 -30 2 -100 -7 -175 -22 -529 -108 -1077 -6 -1510 281 -453 300
-761 765 -866 1308 -25 127 -28 162 -28 380 -1 265 8 337 69 560 120 438 414
844 795 1099 272 182 604 292 965 320 73 6 286 -3 390 -15z"/>
<path d="M3275 7464 c-214 -47 -407 -200 -504 -398 -51 -104 -71 -178 -78
-296 -13 -222 71 -430 236 -582 86 -79 157 -122 268 -162 83 -29 95 -31 233
-31 136 0 150 2 233 32 111 39 182 82 268 161 107 99 185 229 220 372 8 32 14
106 14 180 0 102 -5 139 -24 200 -77 250 -257 431 -506 510 -93 29 -262 36
-360 14z m258 -309 c79 -20 131 -49 188 -102 104 -97 143 -195 137 -342 -3
-86 -7 -106 -37 -166 -46 -92 -112 -157 -208 -203 -145 -68 -307 -54 -436 38
-61 44 -115 111 -149 186 -18 41 -22 67 -22 164 -1 114 0 117 36 191 93 188
296 285 491 234z"/>
<path d="M6580 7393 c-191 -19 -342 -94 -473 -233 -154 -163 -227 -390 -197
-608 31 -225 143 -407 324 -526 149 -98 269 -132 443 -124 309 14 566 215 670
523 24 72 27 94 27 225 0 133 -2 152 -27 224 -104 297 -364 500 -667 518 -36
2 -81 3 -100 1z m230 -349 c95 -45 172 -120 217 -212 37 -74 38 -79 38 -186 0
-104 -2 -115 -32 -179 -43 -89 -125 -172 -218 -218 -66 -32 -75 -34 -175 -34
-97 0 -110 2 -173 32 -76 36 -164 114 -202 178 -52 89 -69 227 -41 330 19 73
52 131 104 188 95 101 187 139 327 134 76 -2 100 -8 155 -33z"/>
<path d="M6097 5760 c-54 -11 -126 -37 -184 -65 -82 -40 -110 -61 -188 -139
-79 -78 -99 -105 -138 -186 -60 -123 -77 -210 -77 -392 0 -125 3 -147 20 -176
59 -96 201 -96 260 0 17 28 20 51 20 143 0 193 29 290 111 380 49 53 99 85
185 117 58 23 66 23 529 23 466 0 470 0 534 -23 120 -43 212 -128 252 -231 19
-46 24 -84 28 -211 5 -130 9 -160 26 -189 57 -97 209 -90 261 12 22 42 22 281
0 387 -54 256 -260 469 -523 542 -74 21 -101 22 -553 25 -434 2 -483 1 -563
-17z"/>
</g>
</svg>
