<?xml version="1.0" standalone="no"?>
<!DOCTYPE svg PUBLIC "-//W3C//DTD SVG 20010904//EN"
 "http://www.w3.org/TR/2001/REC-SVG-20010904/DTD/svg10.dtd">
<svg version="1.0" xmlns="http://www.w3.org/2000/svg"
 width="1024.000000pt" height="1024.000000pt" viewBox="0 0 1024.000000 1024.000000"
 preserveAspectRatio="xMidYMid meet">

<g transform="translate(0.000000,1024.000000) scale(0.100000,-0.100000)"
fill="#000000" stroke="none">
<path d="M3267 8865 c-313 -38 -651 -155 -912 -315 -481 -295 -859 -813 -1000
-1370 -73 -288 -85 -668 -29 -958 74 -390 256 -774 506 -1073 l57 -68 -45
-198 c-97 -427 -154 -701 -154 -737 0 -99 97 -174 186 -142 22 7 172 77 334
153 162 77 375 177 472 223 l178 83 117 -31 c240 -63 337 -76 573 -76 243 0
377 18 593 80 297 85 623 256 845 443 l72 61 73 -63 c361 -315 813 -515 1279
-566 204 -23 478 -8 688 37 l85 19 75 -37 c41 -21 269 -129 505 -241 476 -225
486 -229 557 -179 41 27 62 60 71 107 7 35 -72 443 -147 757 l-45 189 66 75
c301 346 483 736 549 1177 21 146 24 465 6 605 -81 606 -396 1144 -887 1512
-406 304 -985 472 -1483 429 -483 -42 -887 -198 -1228 -473 l-81 -66 -84 76
c-246 220 -486 361 -787 462 -159 53 -338 92 -494 109 -128 14 -376 12 -511
-4z m453 -270 c208 -18 493 -97 692 -193 164 -80 379 -234 496 -355 l34 -35
-52 -63 c-352 -437 -529 -995 -490 -1547 9 -133 31 -295 47 -347 3 -11 -27 11
-72 53 -58 54 -102 85 -169 117 -154 74 -185 77 -713 72 -367 -3 -471 -7 -523
-20 -205 -48 -367 -161 -480 -333 -83 -127 -115 -271 -108 -487 4 -147 17
-179 83 -208 56 -25 97 -16 141 29 39 40 41 52 48 232 3 84 11 156 22 190 32
108 121 210 228 264 107 54 134 56 617 56 407 0 453 -2 507 -18 166 -52 296
-208 322 -387 5 -38 10 -121 10 -184 l0 -113 39 -39 c34 -34 44 -39 86 -39
103 0 145 57 145 195 l0 88 31 -59 c41 -76 111 -184 165 -255 l43 -56 -67 -54
c-308 -247 -672 -406 -1051 -460 -188 -26 -500 5 -754 77 -92 26 -141 35 -170
31 -26 -3 -192 -75 -426 -186 -211 -99 -384 -181 -386 -181 -1 0 34 147 78
328 44 180 81 354 84 387 5 71 -6 92 -111 212 -294 337 -496 872 -496 1317 0
612 300 1214 786 1579 312 234 670 366 1076 396 111 8 137 8 288 -4z m3035
-115 c284 -26 508 -94 786 -236 448 -231 815 -697 949 -1205 46 -176 64 -313
64 -499 0 -325 -61 -585 -202 -866 -76 -151 -217 -356 -321 -466 -95 -101
-121 -144 -121 -203 0 -19 27 -144 59 -278 76 -307 113 -469 109 -472 -2 -2
-192 86 -423 196 -272 129 -431 199 -452 199 -17 0 -69 -9 -115 -20 -270 -65
-605 -67 -873 -5 -545 127 -1065 516 -1304 975 -107 207 -194 481 -221 700
-25 206 -8 511 40 701 182 717 722 1259 1423 1429 221 54 399 69 602 50z"/>
<path d="M3425 7879 c-298 -23 -562 -257 -636 -565 -64 -265 38 -557 252 -728
85 -67 156 -105 259 -138 108 -33 302 -33 410 0 204 65 361 196 450 377 51
102 70 176 77 295 12 203 -52 381 -190 528 -164 174 -369 250 -622 231z m216
-299 c117 -36 212 -113 267 -219 42 -79 56 -149 49 -247 -8 -142 -81 -261
-209 -344 -128 -83 -302 -94 -443 -27 -231 110 -326 379 -213 605 34 67 106
148 168 187 104 65 258 84 381 45z"/>
<path d="M6554 7760 c-305 -38 -548 -247 -626 -539 -29 -109 -29 -269 1 -376
56 -203 190 -364 381 -460 91 -46 161 -65 265 -72 205 -13 386 47 546 182 308
261 335 739 56 1032 -175 184 -383 262 -623 233z m279 -317 c286 -135 356
-497 138 -713 -193 -191 -491 -187 -674 9 -156 167 -156 425 0 592 102 109
205 150 363 146 94 -2 112 -6 173 -34z"/>
<path d="M6077 6190 c-264 -66 -468 -270 -538 -538 -26 -98 -37 -331 -20 -385
38 -113 150 -146 226 -67 29 30 29 33 37 181 11 221 37 306 125 400 55 59 120
102 199 131 57 21 76 22 474 26 261 2 444 -1 494 -7 163 -22 285 -110 358
-258 l42 -84 5 -157 c5 -133 9 -162 26 -191 27 -46 84 -75 130 -67 47 9 102
59 115 104 22 81 6 305 -31 422 -69 218 -258 407 -484 481 -69 23 -77 24 -575
26 -472 2 -510 1 -583 -17z"/>
<path d="M5973 3268 c-50 -13 -83 -60 -83 -117 0 -60 26 -96 80 -112 66 -20
131 13 149 76 25 92 -56 177 -146 153z"/>
<path d="M8540 3050 l0 -212 -25 30 c-13 16 -48 39 -77 52 -44 19 -65 22 -133
18 -94 -5 -143 -27 -216 -95 -91 -85 -135 -212 -126 -363 6 -112 35 -185 98
-255 70 -76 138 -108 244 -113 101 -5 144 7 202 61 l43 40 0 -42 0 -41 100 0
100 0 -2 563 -3 562 -102 3 -103 3 0 -211z m-70 -288 c22 -12 44 -35 58 -62
19 -38 22 -59 22 -160 0 -128 -14 -176 -66 -223 -69 -64 -199 -54 -267 22 -48
53 -60 97 -55 200 6 119 40 180 123 224 42 23 141 22 185 -1z"/>
<path d="M1014 3230 c-128 -42 -217 -114 -279 -225 -50 -90 -66 -155 -72 -295
-9 -211 36 -352 145 -458 108 -106 221 -148 377 -140 80 4 102 10 169 42 87
42 181 127 211 191 10 22 20 62 23 88 l5 48 -108 -3 -108 -3 -12 -40 c-28 -97
-86 -135 -205 -135 -182 0 -274 125 -274 375 0 133 14 205 57 276 58 96 179
143 282 109 51 -17 119 -87 137 -141 l15 -44 108 -3 108 -3 -6 55 c-11 111
-107 229 -234 289 -61 28 -79 32 -173 34 -83 2 -118 -1 -166 -17z"/>
<path d="M1725 3238 c-3 -7 -4 -260 -3 -563 l3 -550 100 0 100 0 5 265 c3 181
9 272 17 286 7 12 28 35 48 53 29 25 44 31 81 31 62 0 106 -23 132 -69 21 -37
22 -51 22 -305 l0 -266 100 0 100 0 0 308 c-1 328 -4 351 -53 415 -13 18 -48
45 -77 61 -98 54 -236 31 -333 -53 l-37 -33 -2 214 -3 213 -98 3 c-72 2 -99
-1 -102 -10z"/>
<path d="M4530 2680 l0 -550 105 0 105 0 0 218 0 217 212 0 213 0 0 85 0 85
-212 3 -213 2 0 160 0 160 240 0 240 0 0 85 0 85 -345 0 -345 0 0 -550z"/>
<path d="M3447 3123 c-4 -3 -7 -53 -7 -110 l0 -103 -55 0 -55 0 0 -75 0 -75
54 0 54 0 4 -242 c2 -182 6 -249 17 -268 20 -37 62 -80 95 -97 45 -24 152 -34
224 -22 l62 11 0 74 0 74 -69 0 c-59 0 -74 4 -98 24 l-28 24 -3 214 -3 213 95
-3 96 -3 0 75 0 76 -95 0 -95 0 0 104 c0 85 -3 105 -16 110 -21 8 -169 8 -177
-1z"/>
<path d="M7453 2924 c-24 -9 -59 -34 -82 -60 -23 -24 -42 -44 -44 -44 -1 0 -3
21 -5 48 -2 26 -7 51 -11 55 -4 4 -46 7 -92 5 l-84 -3 0 -400 0 -400 95 0 95
0 5 270 c5 249 7 273 26 305 58 99 182 108 246 18 22 -32 23 -40 28 -308 l5
-275 98 -3 97 -3 0 308 c0 302 -1 309 -24 358 -25 55 -81 110 -132 131 -43 18
-167 17 -221 -2z"/>
<path d="M9063 2922 c-116 -41 -173 -123 -173 -246 0 -135 54 -182 269 -237
156 -40 187 -62 162 -115 -15 -34 -74 -57 -133 -52 -58 6 -96 30 -110 69 l-10
29 -95 0 -95 0 7 -37 c24 -130 124 -202 291 -211 207 -11 334 75 350 236 15
143 -46 204 -265 261 -150 40 -171 52 -171 102 0 39 32 62 94 67 62 5 111 -15
128 -53 11 -24 15 -25 105 -25 104 0 104 0 72 70 -26 59 -62 96 -124 128 -68
35 -222 42 -302 14z"/>
<path d="M2809 2917 c-102 -29 -164 -83 -194 -168 -25 -69 -25 -69 70 -69 82
0 86 1 95 25 21 56 125 84 190 50 36 -19 60 -62 60 -108 l0 -34 -107 -6 c-242
-13 -353 -95 -353 -259 0 -151 84 -237 230 -238 78 0 156 32 191 79 20 27 49
46 35 22 -3 -5 -3 -30 0 -55 l7 -47 96 3 96 3 -3 275 c-2 151 -8 299 -13 327
-15 76 -62 142 -129 178 -46 24 -68 29 -140 32 -48 2 -105 -3 -131 -10z m192
-447 c28 0 29 -2 29 -45 0 -79 -33 -120 -117 -145 -109 -33 -186 38 -139 129
22 41 107 74 170 65 16 -2 41 -4 57 -4z"/>
<path d="M5314 2917 c-2 -7 -3 -186 -2 -398 l3 -384 103 -3 102 -3 0 228 c0
200 3 233 19 268 42 93 151 137 244 100 15 -7 17 2 17 94 0 99 0 101 -25 107
-84 21 -190 -20 -235 -90 l-20 -31 0 56 c0 68 -1 69 -116 69 -60 0 -86 -4 -90
-13z"/>
<path d="M6521 2919 c-19 -6 -57 -25 -85 -43 -138 -89 -205 -234 -193 -420 10
-144 80 -246 216 -309 56 -27 80 -32 163 -35 72 -3 110 0 150 12 102 33 192
120 205 200 l6 36 -90 0 c-88 0 -90 0 -112 -31 -61 -83 -220 -77 -294 10 -26
32 -46 96 -32 109 4 4 127 7 273 7 l267 0 3 50 c11 160 -81 326 -216 392 -45
22 -72 28 -141 30 -47 1 -101 -2 -120 -8z m156 -150 c54 -20 93 -70 108 -136
l7 -33 -172 0 -172 0 7 28 c27 111 130 176 222 141z"/>
<path d="M5910 2525 l0 -395 100 0 100 0 0 395 0 395 -100 0 -100 0 0 -395z"/>
<path d="M3944 2626 c-3 -7 -4 -42 -2 -77 l3 -64 205 -3 c112 -1 209 -1 215 1
6 3 9 35 7 81 l-4 76 -209 0 c-167 0 -211 -3 -215 -14z"/>
</g>
</svg>
